<?xml version="1.0" encoding="UTF-8" standalone="no"?>
<svg
   xmlns:dc="http://purl.org/dc/elements/1.1/"
   xmlns:cc="http://creativecommons.org/ns#"
   xmlns:rdf="http://www.w3.org/1999/02/22-rdf-syntax-ns#"
   xmlns:svg="http://www.w3.org/2000/svg"
   xmlns="http://www.w3.org/2000/svg"
   xmlns:sodipodi="http://sodipodi.sourceforge.net/DTD/sodipodi-0.dtd"
   xmlns:inkscape="http://www.inkscape.org/namespaces/inkscape"
   version="1.1"
   id="svg78"
   width="512"
   height="512"
   viewBox="0 0 512 512"
   sodipodi:docname="logo.svg"
   inkscape:version="1.0.2 (e86c870879, 2021-01-15)">
  <metadata
     id="metadata84">
    <rdf:RDF>
      <cc:Work
         rdf:about="">
        <dc:format>image/svg+xml</dc:format>
        <dc:type
           rdf:resource="http://purl.org/dc/dcmitype/StillImage" />
        <dc:title></dc:title>
      </cc:Work>
    </rdf:RDF>
  </metadata>
  <defs
     id="defs82" />
  <sodipodi:namedview
     pagecolor="#ffffff"
     bordercolor="#666666"
     borderopacity="1"
     objecttolerance="10"
     gridtolerance="10"
     guidetolerance="10"
     inkscape:pageopacity="0"
     inkscape:pageshadow="2"
     inkscape:window-width="1366"
     inkscape:window-height="704"
     id="namedview80"
     showgrid="false"
     inkscape:zoom="0.36209587"
     inkscape:cx="-311.42498"
     inkscape:cy="121.58503"
     inkscape:window-x="0"
     inkscape:window-y="0"
     inkscape:window-maximized="1"
     inkscape:current-layer="g86" />
  <g
     inkscape:groupmode="layer"
     inkscape:label="Image"
     id="g86">
    <path
       style="fill:#ffffff"
       d="m 55.90543,504.90443 c -1.18006,-0.23082 -2.98006,-1.3416 -4,-2.46838 -1.76713,-1.95226 -1.86732,-5.68836 -2.12821,-79.3619 L 49.50345,345.76096 32.053,345.42872 c -16.603511,-0.31611 -17.560911,-0.4428 -19.726231,-2.61018 l -2.27577,-2.27795 V 195.31854 50.096478 l 2.28446,-6.60856 c 5.28852,-15.29879 15.808191,-25.81846 31.106981,-31.10698 l 6.60856,-2.28446 h 174.49999 c 167.3335,0 174.7784,0.0768 181.2789,1.86886 13.1738,3.63188 24.2115,13.13903 30.4115,26.19447 7.9899,16.82453 4.6078,37.650919 -8.367,51.522059 -5.7316,6.127493 -12.7634,10.648443 -20.0854,12.913513 l -5.738,1.77507 -0.2637,32.61302 -0.2636,32.61301 30.7636,0.0327 c 16.92,0.018 33.8505,0.43048 37.6232,0.91664 18.3697,2.36712 32.3296,16.39058 34.7135,34.87145 1.1384,8.82517 1.1175,255.69299 -0.022,264.53871 -2.3671,18.36969 -16.3906,32.32962 -34.8714,34.71349 -6.5111,0.83986 -409.56237,1.06869 -413.82479,0.23494 z m 216.58436,-18.39382 c -1.2085,-1.69723 -2.9939,-5.18473 -3.9676,-7.75 l -1.7704,-4.66413 -52.60038,-0.25884 -52.60042,-0.25884 v -7.99116 -7.99116 h 52 52 v -8 -8 h -20 -20 v -8 -8 h 20 20 v -8 -8 h -60 -60 v -8 -8 h 60 60 v -8 -8 h -28 -28 v -8 -8 h 28 28 v -37.10699 c 0,-29.31251 -0.2626,-36.99136 -1.25,-36.55652 -13.86386,6.10531 -23.53575,8.54218 -34.82479,8.77423 -6.06518,0.12467 -7.4303,-0.17119 -9.26897,-2.00887 -2.12031,-2.11917 -2.16116,-2.77867 -2.45158,-39.58313 l -0.29534,-37.42804 -37.42804,-0.29534 c -36.80446,-0.29042 -37.46396,-0.33127 -39.58313,-2.45158 -1.84555,-1.84655 -2.13365,-3.19853 -2.0059,-9.4133 0.61623,-29.97914 19.23943,-58.98288 47.11811,-73.38165 24.47381,-12.64023 52.36013,-13.17804 76.91804,-1.48343 16.0203,7.62896 29.4293,19.55538 37.4803,33.33621 2.6459,4.52891 4.3686,6.51412 5.3318,6.14448 0.7827,-0.30034 19.1613,-0.54607 40.8413,-0.54607 h 39.4182 v -32 -32 h -160 H 65.551 v 192 192 H 170.11908 274.68719 Z M 97.551,464.62216 c 0,-8.77432 -0.0613,-9.00642 -2.75,-10.41468 -6.26456,-3.28118 -12.25,-12.11465 -12.25,-18.07888 0,-2.48442 0.1413,-2.53212 7.5,-2.53212 6.83333,0 7.5,0.17778 7.5,2 0,3.34124 3.54502,6 8,6 5.33333,0 7.99999,-2.66667 7.99999,-8 0,-5.26675 -2.49087,-7.68991 -8.67791,-8.44201 -2.65214,-0.3224 -7.29708,-1.84645 -10.32208,-3.38678 -13.65025,-6.95073 -16.38055,-25.51793 -5.37131,-36.52717 1.55636,-1.55636 4.07659,-3.47452 5.60053,-4.26257 2.71544,-1.40421 2.77078,-1.61208 2.77078,-10.40715 v -8.97432 h 8 7.99999 v 8.97432 c 0,8.77432 0.0613,9.00642 2.75,10.41468 6.26456,3.28118 12.25,12.11465 12.25,18.07888 0,2.48442 -0.1413,2.53212 -7.5,2.53212 -6.83333,0 -7.5,-0.17778 -7.5,-2 0,-3.34124 -3.54501,-6 -7.99999,-6 -5.33333,0 -8,2.66667 -8,8 0,5.42888 2.43856,7.661 9.30708,8.51916 3.14382,0.3928 7.64027,1.92224 10.56935,3.59511 15.34357,8.76308 14.70024,32.33072 -1.10566,40.50426 -2.71544,1.40421 -2.77078,1.61208 -2.77078,10.40715 v 8.97432 h -7.99999 -8 z m 47.99999,-31.02568 v -8 h 32 32 v 8 8 h -32 -32 z m 48,-113.1032 c -11.12137,-0.94123 -19.33837,-3.31916 -30.5,-8.82644 -28.83745,-14.22872 -47.97927,-43.42543 -48.61072,-74.14515 -0.1247,-6.06663 0.17092,-7.42986 2.01004,-9.26897 2.14137,-2.14137 2.45232,-2.15624 45.10068,-2.15624 h 42.94444 l 2.27778,2.27778 2.27778,2.27778 v 42.86723 c 0,39.96254 -0.12263,43.00274 -1.80984,44.86708 -2.31164,2.55433 -4.47317,2.887 -13.69016,2.10693 z m 0,-46.8968 v -32 h -32 c -17.6,0 -31.99219,0.3375 -31.98264,0.75 0.0979,4.22885 3.71174,16.10109 6.88589,22.62165 7.34629,15.09124 18.64752,26.38556 33.76515,33.74448 6.86299,3.34075 17.06849,6.48554 22.0816,6.80437 0.97561,0.062 1.25,-6.94477 1.25,-31.9205 z m 285.1363,212.47207 c 2.3693,-1.66536 5.6704,-4.96662 7.3358,-7.33614 l 3.0279,-4.30821 V 337.59648 200.76876 l -3.0279,-4.30821 c -1.6654,-2.36952 -4.9667,-5.67078 -7.3362,-7.33614 l -4.3082,-3.02793 h -88.8277 -88.8277 l -4.3082,3.02793 c -2.3696,1.66536 -5.6708,4.96655 -7.3362,7.33597 l -3.0279,4.30805 -0.2955,134.66403 c -0.1971,89.80636 0.046,135.84496 0.7288,138.20924 1.3939,4.82461 7.1233,11.27694 12.2967,13.84841 4.2667,2.12078 4.3379,2.12222 91.9342,1.8644 l 87.6642,-0.25803 z m -174.7819,-13.12441 c -1.18,-0.25267 -2.98,-1.3815 -4,-2.50851 -1.668,-1.8431 -1.8544,-3.94614 -1.8544,-20.91636 0,-25.20023 -1.34834,-23.50989 23.5,-23.42279 18.38109,0.0644 19.0122,0.0677 21.2222,2.27778 2.2101,2.21006 2.2778,2.84101 2.2778,21.22222 0,25.08719 1.5109,23.44596 -21.7758,23.65353 -9.4733,0.0844 -18.1897,-0.0532 -19.3698,-0.30587 z m 25.6456,-23.34766 v -8 h -8 -8 v 8 8 h 8 8 z m 38.3544,23.34766 c -1.18,-0.25267 -2.98,-1.3815 -4,-2.50851 -1.668,-1.8431 -1.8544,-3.94614 -1.8544,-20.91636 0,-25.20023 -1.7833,-23.42279 23.5,-23.42279 18.3812,0 19.0122,0.0677 21.2222,2.27778 2.2101,2.21006 2.2778,2.84101 2.2778,21.22222 0,25.08719 1.5109,23.44596 -21.7758,23.65353 -9.4733,0.0844 -18.1897,-0.0532 -19.3698,-0.30587 z m 25.6456,-23.34766 v -8 h -8 -8 v 8 8 h 8 8 z m 38.3544,23.34766 c -1.18,-0.25267 -2.98,-1.3815 -4,-2.50851 -1.7312,-1.91303 -1.8544,-4.3648 -1.8544,-36.91636 v -34.86723 l 2.2778,-2.27778 c 2.08202,-2.082 2.841,-2.27778 21.2222,-2.27778 18.3812,0 19.0122,0.0677 21.2222,2.27778 l 2.2778,2.27778 v 34.94444 34.94444 l -2.2758,2.27778 c -2.1786,2.18056 -3.0109,2.28433 -19.5,2.43131 -9.4733,0.0844 -18.1897,-0.0532 -19.3698,-0.30587 z m 25.6456,-39.34766 v -24 h -8 -8 v 24 24 h 8 8 z m -153.6456,-24.65234 c -1.18,-0.25267 -2.98,-1.3815 -4,-2.50851 -1.668,-1.8431 -1.8544,-3.94614 -1.8544,-20.91636 0,-25.20023 -1.7833,-23.42279 23.5,-23.42279 18.3812,0 19.0122,0.0677 21.2222,2.27778 2.2101,2.21006 2.2778,2.84101 2.2778,21.22222 0,25.08719 1.5109,23.44596 -21.7758,23.65353 -9.4733,0.0844 -18.1897,-0.0532 -19.3698,-0.30587 z m 25.6456,-23.34766 v -8 h -8 -8 v 8 8 h 8 8 z m 38.3544,23.34766 c -1.18,-0.25267 -2.98,-1.3815 -4,-2.50851 -1.668,-1.8431 -1.8544,-3.94614 -1.8544,-20.91636 0,-25.20023 -1.7833,-23.42279 23.5,-23.42279 18.3812,0 19.0122,0.0677 21.2222,2.27778 2.2101,2.21006 2.2778,2.84101 2.2778,21.22222 0,25.08719 1.5109,23.44596 -21.7758,23.65353 -9.4733,0.0844 -18.1897,-0.0532 -19.3698,-0.30587 z m 25.6456,-23.34766 v -8 h -8 -8 v 8 8 h 8 8 z m 38.3544,-8.65234 c -1.18,-0.25267 -2.98,-1.3815 -4,-2.50851 -1.7312,-1.91303 -1.8544,-4.3648 -1.8544,-36.91636 v -34.86723 l 2.2778,-2.27778 c 2.21,-2.21006 2.841,-2.27778 21.2222,-2.27778 18.3812,0 19.0122,0.0677 21.2222,2.27778 l 2.2778,2.27778 v 34.94444 34.94444 l -2.2758,2.27778 c -2.1786,2.18056 -3.0109,2.28433 -19.5,2.43131 -9.4733,0.0844 -18.1897,-0.0532 -19.3698,-0.30587 z m 25.6456,-39.34766 v -24 h -8 -8 v 24 24 h 8 8 z m -153.6456,7.34766 c -1.18,-0.25267 -2.98,-1.3815 -4,-2.50851 -1.668,-1.8431 -1.8544,-3.94614 -1.8544,-20.91636 0,-25.20023 -1.7833,-23.42279 23.5,-23.42279 18.3812,0 19.0122,0.0677 21.2222,2.27778 2.2101,2.21006 2.2778,2.84101 2.2778,21.22222 0,25.08719 1.5109,23.44596 -21.7758,23.65353 -9.4733,0.0844 -18.1897,-0.0532 -19.3698,-0.30587 z m 25.6456,-23.34766 v -8 h -8 -8 v 8 8 h 8 8 z m 38.3544,23.34766 c -1.18,-0.25267 -2.98,-1.3815 -4,-2.50851 -1.668,-1.8431 -1.8544,-3.94614 -1.8544,-20.91636 0,-25.20023 -1.7833,-23.42279 23.5,-23.42279 18.3812,0 19.0122,0.0677 21.2222,2.27778 2.2101,2.21006 2.2778,2.84101 2.2778,21.22222 0,25.08719 1.5109,23.44596 -21.7758,23.65353 -9.4733,0.0844 -18.1897,-0.0532 -19.3698,-0.30587 z m 25.6456,-23.34766 v -8 h -8 -8 v 8 8 h 8 8 z m -89.6456,-40.68067 c -1.18,-0.23709 -2.98,-1.35317 -4,-2.48018 -1.7312,-1.91303 -1.8544,-4.3648 -1.8544,-36.91636 v -34.86723 l 2.2778,-2.27778 2.2778,-2.27778 h 82.9444 82.9444 l 2.2778,2.27778 2.2778,2.27778 v 34.94444 34.94444 l -2.2774,2.27778 -2.2775,2.27778 -81.2225,0.12519 c -44.6724,0.0689 -82.1881,-0.0688 -83.3682,-0.30586 z m 153.6456,-39.31933 v -24 h -72 -72 v 24 24 h 72 72 z M 49.78485,212.12408 C 50.09134,76.848687 48.77697,91.402707 60.84126,89.696327 c 11.95913,-1.6915 20.98475,-7.93169 25.89722,-17.904979 1.92495,-3.90802 2.31252,-6.28705 2.31252,-14.19487 0,-11.05985 -1.93613,-16.20084 -8.61765,-22.88235 -6.68151,-6.68152 -11.82251,-8.61765 -22.88235,-8.61765 -7.90782,0 -10.28685,0.38757 -14.19487,2.31252 -5.99225,2.95156 -12.04105,9.00035 -14.99261,14.99261 l -2.31252,4.69487 -0.26024,140.750002 -0.26023,140.75 h 11.99408 11.99408 z m 192.76614,67.91614 c 3.575,-0.83968 10.16824,-3.29947 14.65165,-5.46619 l 8.15165,-3.9395 0.4116,-34.26903 c 0.3933,-32.74974 0.5123,-34.52537 2.6823,-40.05133 3.473,-8.84401 10.5373,-16.9441 18.82,-21.57932 1.3998,-0.78333 0.9941,-1.7825 -2.9532,-7.27323 -5.321,-7.4016 -12.1218,-14.25221 -13.6292,-13.72891 -0.5764,0.20007 -9.1675,13.11646 -19.09137,28.70308 l -18.04343,28.33932 v 35.41068 c 0,27.66977 0.27326,35.40746 1.25,35.39591 0.6875,-0.008 4.175,-0.7018 7.75,-1.54148 z m -27,-78.95617 c 0,-1.58644 -14.39409,-58.11759 -14.96147,-58.75946 -1.07185,-1.21257 -13.92118,5.67556 -20.5143,10.99709 -8.05615,6.50239 -14.86383,15.12824 -19.55272,24.7748 -3.35966,6.91189 -6.90962,18.26588 -6.95673,22.25 -0.0115,0.97344 6.844,1.25 30.98522,1.25 17.05,0 31,-0.2306 31,-0.51243 z m 28.94834,-34.9242 c 15.09716,-23.83433 15.53882,-22.17555 3.73565,-25.98811 -4.68048,-1.51184 -10.68704,-2.87488 -19.93399,-3.42383 -7.00516,-0.41586 -12.75,0.90414 -12.75,1.26109 0,0.81828 11.88349,48.58219 12.56796,50.51502 0.75584,2.13438 1.54486,1.05713 16.38038,-22.36417 z M 405.12289,87.925087 c 6.7739,-2.29739 16.4593,-11.98282 18.7567,-18.756749 2.1397,-6.30885 2.1397,-16.83488 0,-23.14372 -2.2974,-6.77394 -11.9828,-16.45937 -18.7567,-18.75676 -4.5209,-1.53326 -17.6474,-1.67138 -158.83893,-1.67138 H 92.37321 l 2.63669,3.13353 c 12.95035,15.39061 12.95035,42.34232 0,57.732939 l -2.63669,3.13353 h 153.91075 c 141.19153,0 154.31803,-0.13813 158.83893,-1.67139 z"
       id="path94"
       sodipodi:nodetypes="ssscsscccsscscssscccssscssssscccccccccccccccccccccccccccccccscssscsssssssscccccccccssssssssssssscccssssssssssscccscccccccccssssscccsssscsssssssscccssccccccscsscssssssssscccccccccsssssssscccccccccscscssscccssscccccccccsssssssscccccccccsssssssscccccccccscscssscccssscccccccccsssssssscccccccccsssssssscccccccccscscccccccccccsscccccccccsssssssscccccssscsssssscscssssssssssssssssssscsscss"
       inkscape:export-xdpi="31.00963"
       inkscape:export-ydpi="31.00963" />
  </g>
</svg>
